<mxfile host="app.diagrams.net" agent="Mozilla/5.0 (Windows NT 10.0; Win64; x64; rv:129.0) Gecko/20100101 Firefox/129.0" version="24.7.10">
  <diagram name="第 1 页" id="BfuhpY1atfN11ypJLnyV">
    <mxGraphModel dx="1893" dy="1900" grid="1" gridSize="10" guides="1" tooltips="1" connect="1" arrows="1" fold="1" page="1" pageScale="1" pageWidth="827" pageHeight="1169" math="0" shadow="0">
      <root>
        <mxCell id="0" />
        <mxCell id="1" parent="0" />
        <mxCell id="tf5tOp5ZgWKr3oPoaceN-20" style="edgeStyle=orthogonalEdgeStyle;rounded=0;orthogonalLoop=1;jettySize=auto;html=1;entryX=0;entryY=0.5;entryDx=0;entryDy=0;fontSize=15.5;fontColor=#007FFF;" edge="1" parent="1" source="tf5tOp5ZgWKr3oPoaceN-1" target="tf5tOp5ZgWKr3oPoaceN-2">
          <mxGeometry relative="1" as="geometry" />
        </mxCell>
        <mxCell id="tf5tOp5ZgWKr3oPoaceN-1" value="&lt;font style=&quot;font-size: 15.5px;&quot;&gt;Tracks&lt;/font&gt;" style="rounded=1;whiteSpace=wrap;html=1;fontSize=15.5;fontColor=#007FFF;" vertex="1" parent="1">
          <mxGeometry x="-10" y="290" width="90" height="60" as="geometry" />
        </mxCell>
        <mxCell id="tf5tOp5ZgWKr3oPoaceN-21" style="edgeStyle=orthogonalEdgeStyle;rounded=0;orthogonalLoop=1;jettySize=auto;html=1;entryX=0;entryY=0.5;entryDx=0;entryDy=0;fontSize=15.5;fontColor=#007FFF;" edge="1" parent="1" source="tf5tOp5ZgWKr3oPoaceN-2" target="tf5tOp5ZgWKr3oPoaceN-3">
          <mxGeometry relative="1" as="geometry" />
        </mxCell>
        <mxCell id="tf5tOp5ZgWKr3oPoaceN-22" style="edgeStyle=orthogonalEdgeStyle;rounded=0;orthogonalLoop=1;jettySize=auto;html=1;entryX=0;entryY=0.5;entryDx=0;entryDy=0;fontSize=15.5;fontColor=#007FFF;" edge="1" parent="1" source="tf5tOp5ZgWKr3oPoaceN-2" target="tf5tOp5ZgWKr3oPoaceN-4">
          <mxGeometry relative="1" as="geometry" />
        </mxCell>
        <mxCell id="tf5tOp5ZgWKr3oPoaceN-2" value="&lt;div style=&quot;font-size: 15.5px;&quot; align=&quot;center&quot;&gt;Kalman Filter &lt;br style=&quot;font-size: 15.5px;&quot;&gt;Predict&lt;/div&gt;" style="rounded=1;whiteSpace=wrap;html=1;align=center;fontSize=15.5;fontColor=#007FFF;" vertex="1" parent="1">
          <mxGeometry x="140" y="290" width="90" height="60" as="geometry" />
        </mxCell>
        <mxCell id="tf5tOp5ZgWKr3oPoaceN-59" style="edgeStyle=orthogonalEdgeStyle;rounded=0;orthogonalLoop=1;jettySize=auto;html=1;entryX=0.5;entryY=1;entryDx=0;entryDy=0;fontSize=15.5;fontColor=#007FFF;" edge="1" parent="1" source="tf5tOp5ZgWKr3oPoaceN-3" target="tf5tOp5ZgWKr3oPoaceN-6">
          <mxGeometry relative="1" as="geometry" />
        </mxCell>
        <mxCell id="tf5tOp5ZgWKr3oPoaceN-3" value="Confirmed" style="rounded=1;whiteSpace=wrap;html=1;align=center;fontSize=15.5;fontColor=#007FFF;" vertex="1" parent="1">
          <mxGeometry x="270" y="250" width="90" height="60" as="geometry" />
        </mxCell>
        <mxCell id="tf5tOp5ZgWKr3oPoaceN-48" style="edgeStyle=orthogonalEdgeStyle;rounded=0;orthogonalLoop=1;jettySize=auto;html=1;fontSize=15.5;fontColor=#007FFF;" edge="1" parent="1" source="tf5tOp5ZgWKr3oPoaceN-4" target="tf5tOp5ZgWKr3oPoaceN-10">
          <mxGeometry relative="1" as="geometry" />
        </mxCell>
        <mxCell id="tf5tOp5ZgWKr3oPoaceN-4" value="Unconfirmed" style="rounded=1;whiteSpace=wrap;html=1;align=center;fontSize=15.5;fontColor=#007FFF;" vertex="1" parent="1">
          <mxGeometry x="270" y="330" width="90" height="60" as="geometry" />
        </mxCell>
        <mxCell id="tf5tOp5ZgWKr3oPoaceN-31" style="edgeStyle=orthogonalEdgeStyle;rounded=0;orthogonalLoop=1;jettySize=auto;html=1;entryX=0;entryY=0.5;entryDx=0;entryDy=0;fontSize=15.5;fontColor=#007FFF;" edge="1" parent="1" source="tf5tOp5ZgWKr3oPoaceN-5" target="tf5tOp5ZgWKr3oPoaceN-6">
          <mxGeometry relative="1" as="geometry" />
        </mxCell>
        <mxCell id="tf5tOp5ZgWKr3oPoaceN-5" value="Detections" style="rounded=1;whiteSpace=wrap;html=1;align=center;fontSize=15.5;fontColor=#007FFF;" vertex="1" parent="1">
          <mxGeometry x="150" y="130" width="80" height="60" as="geometry" />
        </mxCell>
        <mxCell id="tf5tOp5ZgWKr3oPoaceN-28" style="edgeStyle=orthogonalEdgeStyle;rounded=0;orthogonalLoop=1;jettySize=auto;html=1;entryX=0;entryY=0.5;entryDx=0;entryDy=0;fontSize=15.5;fontColor=#007FFF;" edge="1" parent="1" source="tf5tOp5ZgWKr3oPoaceN-6" target="tf5tOp5ZgWKr3oPoaceN-8">
          <mxGeometry relative="1" as="geometry" />
        </mxCell>
        <mxCell id="tf5tOp5ZgWKr3oPoaceN-29" style="edgeStyle=orthogonalEdgeStyle;rounded=0;orthogonalLoop=1;jettySize=auto;html=1;entryX=0;entryY=0.5;entryDx=0;entryDy=0;fontSize=15.5;fontColor=#007FFF;" edge="1" parent="1" source="tf5tOp5ZgWKr3oPoaceN-6" target="tf5tOp5ZgWKr3oPoaceN-9">
          <mxGeometry relative="1" as="geometry" />
        </mxCell>
        <mxCell id="tf5tOp5ZgWKr3oPoaceN-30" style="edgeStyle=orthogonalEdgeStyle;rounded=0;orthogonalLoop=1;jettySize=auto;html=1;entryX=0;entryY=0.5;entryDx=0;entryDy=0;fontSize=15.5;fontColor=#007FFF;" edge="1" parent="1" source="tf5tOp5ZgWKr3oPoaceN-6" target="tf5tOp5ZgWKr3oPoaceN-7">
          <mxGeometry relative="1" as="geometry" />
        </mxCell>
        <mxCell id="tf5tOp5ZgWKr3oPoaceN-6" value="Matching&lt;br style=&quot;font-size: 15.5px;&quot;&gt;Cascade" style="rounded=1;whiteSpace=wrap;html=1;align=center;fontSize=15.5;fontColor=#007FFF;" vertex="1" parent="1">
          <mxGeometry x="270" y="130" width="90" height="60" as="geometry" />
        </mxCell>
        <mxCell id="tf5tOp5ZgWKr3oPoaceN-32" style="edgeStyle=orthogonalEdgeStyle;rounded=0;orthogonalLoop=1;jettySize=auto;html=1;entryX=0.5;entryY=0;entryDx=0;entryDy=0;fontSize=15.5;fontColor=#007FFF;" edge="1" parent="1" source="tf5tOp5ZgWKr3oPoaceN-7" target="tf5tOp5ZgWKr3oPoaceN-10">
          <mxGeometry relative="1" as="geometry" />
        </mxCell>
        <mxCell id="tf5tOp5ZgWKr3oPoaceN-7" value="&lt;div style=&quot;font-size: 15.5px;&quot;&gt;Unmatched&lt;/div&gt;&lt;div style=&quot;font-size: 15.5px;&quot;&gt;Tracks&lt;br style=&quot;font-size: 15.5px;&quot;&gt;&lt;/div&gt;" style="rounded=1;whiteSpace=wrap;html=1;align=center;fontSize=15.5;fontColor=#007FFF;" vertex="1" parent="1">
          <mxGeometry x="430" y="60" width="90" height="60" as="geometry" />
        </mxCell>
        <mxCell id="tf5tOp5ZgWKr3oPoaceN-8" value="&lt;div style=&quot;font-size: 15.5px;&quot;&gt;Unmatched&lt;/div&gt;&lt;div style=&quot;font-size: 15.5px;&quot;&gt;Detections&lt;br style=&quot;font-size: 15.5px;&quot;&gt;&lt;/div&gt;" style="rounded=1;whiteSpace=wrap;html=1;align=center;fontSize=15.5;fontColor=#007FFF;" vertex="1" parent="1">
          <mxGeometry x="430" y="130" width="90" height="60" as="geometry" />
        </mxCell>
        <mxCell id="tf5tOp5ZgWKr3oPoaceN-9" value="Matched&lt;br style=&quot;font-size: 15.5px;&quot;&gt;Tracks" style="rounded=1;whiteSpace=wrap;html=1;align=center;fontSize=15.5;fontColor=#007FFF;" vertex="1" parent="1">
          <mxGeometry x="430" y="200" width="90" height="60" as="geometry" />
        </mxCell>
        <mxCell id="tf5tOp5ZgWKr3oPoaceN-33" style="edgeStyle=orthogonalEdgeStyle;rounded=0;orthogonalLoop=1;jettySize=auto;html=1;entryX=0;entryY=0.5;entryDx=0;entryDy=0;fontSize=15.5;fontColor=#007FFF;" edge="1" parent="1" source="tf5tOp5ZgWKr3oPoaceN-10" target="tf5tOp5ZgWKr3oPoaceN-14">
          <mxGeometry relative="1" as="geometry" />
        </mxCell>
        <mxCell id="tf5tOp5ZgWKr3oPoaceN-34" style="edgeStyle=orthogonalEdgeStyle;rounded=0;orthogonalLoop=1;jettySize=auto;html=1;entryX=0;entryY=0.5;entryDx=0;entryDy=0;fontSize=15.5;fontColor=#007FFF;" edge="1" parent="1" source="tf5tOp5ZgWKr3oPoaceN-10" target="tf5tOp5ZgWKr3oPoaceN-13">
          <mxGeometry relative="1" as="geometry" />
        </mxCell>
        <mxCell id="tf5tOp5ZgWKr3oPoaceN-35" style="edgeStyle=orthogonalEdgeStyle;rounded=0;orthogonalLoop=1;jettySize=auto;html=1;entryX=0;entryY=0.5;entryDx=0;entryDy=0;fontSize=15.5;fontColor=#007FFF;" edge="1" parent="1" source="tf5tOp5ZgWKr3oPoaceN-10" target="tf5tOp5ZgWKr3oPoaceN-11">
          <mxGeometry relative="1" as="geometry" />
        </mxCell>
        <mxCell id="tf5tOp5ZgWKr3oPoaceN-10" value="IOU&lt;br style=&quot;font-size: 15.5px;&quot;&gt;Match" style="rounded=1;whiteSpace=wrap;html=1;align=center;fontSize=15.5;fontColor=#007FFF;" vertex="1" parent="1">
          <mxGeometry x="570" y="130" width="90" height="60" as="geometry" />
        </mxCell>
        <mxCell id="tf5tOp5ZgWKr3oPoaceN-46" style="edgeStyle=orthogonalEdgeStyle;rounded=0;orthogonalLoop=1;jettySize=auto;html=1;entryX=1;entryY=0.5;entryDx=0;entryDy=0;fontSize=15.5;fontColor=#007FFF;" edge="1" parent="1" source="tf5tOp5ZgWKr3oPoaceN-11" target="tf5tOp5ZgWKr3oPoaceN-12">
          <mxGeometry relative="1" as="geometry">
            <Array as="points">
              <mxPoint x="790" y="470" />
            </Array>
          </mxGeometry>
        </mxCell>
        <mxCell id="tf5tOp5ZgWKr3oPoaceN-11" value="Matched&lt;br style=&quot;font-size: 15.5px;&quot;&gt;Tracks" style="rounded=1;whiteSpace=wrap;html=1;align=center;fontSize=15.5;fontColor=#007FFF;" vertex="1" parent="1">
          <mxGeometry x="730" y="200" width="90" height="60" as="geometry" />
        </mxCell>
        <mxCell id="tf5tOp5ZgWKr3oPoaceN-47" style="edgeStyle=orthogonalEdgeStyle;rounded=0;orthogonalLoop=1;jettySize=auto;html=1;entryX=0.5;entryY=1;entryDx=0;entryDy=0;fontSize=15.5;fontColor=#007FFF;" edge="1" parent="1" source="tf5tOp5ZgWKr3oPoaceN-12" target="tf5tOp5ZgWKr3oPoaceN-1">
          <mxGeometry relative="1" as="geometry" />
        </mxCell>
        <mxCell id="tf5tOp5ZgWKr3oPoaceN-12" value="&lt;div style=&quot;font-size: 15.5px;&quot;&gt;Kalman Filter&lt;/div&gt;&lt;div style=&quot;font-size: 15.5px;&quot;&gt;Update&lt;br style=&quot;font-size: 15.5px;&quot;&gt;&lt;/div&gt;" style="rounded=1;whiteSpace=wrap;html=1;align=center;fontSize=15.5;fontColor=#007FFF;" vertex="1" parent="1">
          <mxGeometry x="260" y="440" width="90" height="60" as="geometry" />
        </mxCell>
        <mxCell id="tf5tOp5ZgWKr3oPoaceN-45" style="edgeStyle=orthogonalEdgeStyle;rounded=0;orthogonalLoop=1;jettySize=auto;html=1;fontSize=15.5;fontColor=#007FFF;" edge="1" parent="1" source="tf5tOp5ZgWKr3oPoaceN-13" target="tf5tOp5ZgWKr3oPoaceN-19">
          <mxGeometry relative="1" as="geometry" />
        </mxCell>
        <mxCell id="tf5tOp5ZgWKr3oPoaceN-13" value="&lt;div style=&quot;font-size: 15.5px;&quot;&gt;Unmatched&lt;/div&gt;&lt;div style=&quot;font-size: 15.5px;&quot;&gt;Detections&lt;br style=&quot;font-size: 15.5px;&quot;&gt;&lt;/div&gt;" style="rounded=1;whiteSpace=wrap;html=1;align=center;fontSize=15.5;fontColor=#007FFF;" vertex="1" parent="1">
          <mxGeometry x="730" y="130" width="90" height="60" as="geometry" />
        </mxCell>
        <mxCell id="tf5tOp5ZgWKr3oPoaceN-36" style="edgeStyle=orthogonalEdgeStyle;rounded=0;orthogonalLoop=1;jettySize=auto;html=1;entryX=0;entryY=0.75;entryDx=0;entryDy=0;fontSize=15.5;fontColor=#007FFF;" edge="1" parent="1" source="tf5tOp5ZgWKr3oPoaceN-14" target="tf5tOp5ZgWKr3oPoaceN-16">
          <mxGeometry relative="1" as="geometry" />
        </mxCell>
        <mxCell id="tf5tOp5ZgWKr3oPoaceN-37" style="edgeStyle=orthogonalEdgeStyle;rounded=0;orthogonalLoop=1;jettySize=auto;html=1;entryX=0;entryY=0.5;entryDx=0;entryDy=0;fontSize=15.5;fontColor=#007FFF;" edge="1" parent="1" source="tf5tOp5ZgWKr3oPoaceN-14" target="tf5tOp5ZgWKr3oPoaceN-15">
          <mxGeometry relative="1" as="geometry" />
        </mxCell>
        <mxCell id="tf5tOp5ZgWKr3oPoaceN-14" value="&lt;div style=&quot;font-size: 15.5px;&quot;&gt;Unmatched&lt;/div&gt;&lt;div style=&quot;font-size: 15.5px;&quot;&gt;Tracks&lt;br style=&quot;font-size: 15.5px;&quot;&gt;&lt;/div&gt;" style="rounded=1;whiteSpace=wrap;html=1;align=center;fontSize=15.5;fontColor=#007FFF;" vertex="1" parent="1">
          <mxGeometry x="730" y="60" width="90" height="60" as="geometry" />
        </mxCell>
        <mxCell id="tf5tOp5ZgWKr3oPoaceN-38" style="edgeStyle=orthogonalEdgeStyle;rounded=0;orthogonalLoop=1;jettySize=auto;html=1;entryX=0;entryY=0.5;entryDx=0;entryDy=0;fontSize=15.5;fontColor=#007FFF;" edge="1" parent="1" source="tf5tOp5ZgWKr3oPoaceN-15" target="tf5tOp5ZgWKr3oPoaceN-17">
          <mxGeometry relative="1" as="geometry" />
        </mxCell>
        <mxCell id="tf5tOp5ZgWKr3oPoaceN-39" style="edgeStyle=orthogonalEdgeStyle;rounded=0;orthogonalLoop=1;jettySize=auto;html=1;fontSize=15.5;fontColor=#007FFF;" edge="1" parent="1" source="tf5tOp5ZgWKr3oPoaceN-15" target="tf5tOp5ZgWKr3oPoaceN-18">
          <mxGeometry relative="1" as="geometry" />
        </mxCell>
        <mxCell id="tf5tOp5ZgWKr3oPoaceN-15" value="Confirmed" style="rounded=1;whiteSpace=wrap;html=1;align=center;fontSize=15.5;fontColor=#007FFF;" vertex="1" parent="1">
          <mxGeometry x="890" y="80" width="90" height="60" as="geometry" />
        </mxCell>
        <mxCell id="tf5tOp5ZgWKr3oPoaceN-42" style="edgeStyle=orthogonalEdgeStyle;rounded=0;orthogonalLoop=1;jettySize=auto;html=1;entryX=0;entryY=0.5;entryDx=0;entryDy=0;fontSize=15.5;fontColor=#007FFF;" edge="1" parent="1" source="tf5tOp5ZgWKr3oPoaceN-16" target="tf5tOp5ZgWKr3oPoaceN-40">
          <mxGeometry relative="1" as="geometry" />
        </mxCell>
        <mxCell id="tf5tOp5ZgWKr3oPoaceN-16" value="Unconfirmed" style="rounded=1;whiteSpace=wrap;html=1;align=center;fontSize=15.5;fontColor=#007FFF;" vertex="1" parent="1">
          <mxGeometry x="890" y="-30" width="90" height="60" as="geometry" />
        </mxCell>
        <mxCell id="tf5tOp5ZgWKr3oPoaceN-44" style="edgeStyle=orthogonalEdgeStyle;rounded=0;orthogonalLoop=1;jettySize=auto;html=1;entryX=0.5;entryY=1;entryDx=0;entryDy=0;fontSize=15.5;fontColor=#007FFF;" edge="1" parent="1" source="tf5tOp5ZgWKr3oPoaceN-17" target="tf5tOp5ZgWKr3oPoaceN-40">
          <mxGeometry relative="1" as="geometry" />
        </mxCell>
        <mxCell id="tf5tOp5ZgWKr3oPoaceN-17" value="&amp;gt;max age" style="rounded=1;whiteSpace=wrap;html=1;align=center;fontSize=15.5;fontColor=#007FFF;" vertex="1" parent="1">
          <mxGeometry x="1070" y="30" width="90" height="60" as="geometry" />
        </mxCell>
        <mxCell id="tf5tOp5ZgWKr3oPoaceN-54" style="edgeStyle=orthogonalEdgeStyle;rounded=0;orthogonalLoop=1;jettySize=auto;html=1;fontSize=15.5;fontColor=#007FFF;" edge="1" parent="1" source="tf5tOp5ZgWKr3oPoaceN-18" target="tf5tOp5ZgWKr3oPoaceN-1">
          <mxGeometry relative="1" as="geometry">
            <Array as="points">
              <mxPoint x="1115" y="530" />
              <mxPoint x="35" y="530" />
            </Array>
          </mxGeometry>
        </mxCell>
        <mxCell id="tf5tOp5ZgWKr3oPoaceN-18" value="&amp;lt;max age" style="rounded=1;whiteSpace=wrap;html=1;align=center;fontSize=15.5;fontColor=#007FFF;" vertex="1" parent="1">
          <mxGeometry x="1070" y="110" width="90" height="60" as="geometry" />
        </mxCell>
        <mxCell id="tf5tOp5ZgWKr3oPoaceN-19" value="New &lt;br style=&quot;font-size: 15.5px;&quot;&gt;Tracks" style="rounded=1;whiteSpace=wrap;html=1;align=center;fontSize=15.5;fontColor=#007FFF;" vertex="1" parent="1">
          <mxGeometry x="860" y="340" width="90" height="60" as="geometry" />
        </mxCell>
        <mxCell id="tf5tOp5ZgWKr3oPoaceN-60" style="edgeStyle=orthogonalEdgeStyle;rounded=0;orthogonalLoop=1;jettySize=auto;html=1;entryX=0.5;entryY=0;entryDx=0;entryDy=0;fontSize=15.5;fontColor=#007FFF;" edge="1" parent="1" source="tf5tOp5ZgWKr3oPoaceN-40" target="tf5tOp5ZgWKr3oPoaceN-1">
          <mxGeometry relative="1" as="geometry">
            <Array as="points">
              <mxPoint x="1250" y="-40" />
              <mxPoint x="35" y="-40" />
            </Array>
          </mxGeometry>
        </mxCell>
        <mxCell id="tf5tOp5ZgWKr3oPoaceN-40" value="Deleted" style="rounded=1;whiteSpace=wrap;html=1;align=center;fontSize=15.5;fontColor=#007FFF;" vertex="1" parent="1">
          <mxGeometry x="1190" y="-30" width="90" height="60" as="geometry" />
        </mxCell>
        <mxCell id="tf5tOp5ZgWKr3oPoaceN-52" value="" style="endArrow=none;html=1;rounded=0;exitX=1;exitY=0.5;exitDx=0;exitDy=0;fontSize=15.5;fontColor=#007FFF;" edge="1" parent="1" source="tf5tOp5ZgWKr3oPoaceN-12">
          <mxGeometry width="50" height="50" relative="1" as="geometry">
            <mxPoint x="350" y="495" as="sourcePoint" />
            <mxPoint x="560" y="230" as="targetPoint" />
            <Array as="points">
              <mxPoint x="560" y="470" />
              <mxPoint x="560" y="365" />
            </Array>
          </mxGeometry>
        </mxCell>
        <mxCell id="tf5tOp5ZgWKr3oPoaceN-53" value="" style="endArrow=none;html=1;rounded=0;exitX=1;exitY=0.5;exitDx=0;exitDy=0;fontSize=15.5;fontColor=#007FFF;" edge="1" parent="1" source="tf5tOp5ZgWKr3oPoaceN-9">
          <mxGeometry width="50" height="50" relative="1" as="geometry">
            <mxPoint x="570" y="220" as="sourcePoint" />
            <mxPoint x="560" y="230" as="targetPoint" />
          </mxGeometry>
        </mxCell>
        <mxCell id="tf5tOp5ZgWKr3oPoaceN-55" value="" style="endArrow=none;html=1;rounded=0;exitX=0.5;exitY=1;exitDx=0;exitDy=0;fontSize=15.5;fontColor=#007FFF;" edge="1" parent="1" source="tf5tOp5ZgWKr3oPoaceN-19">
          <mxGeometry width="50" height="50" relative="1" as="geometry">
            <mxPoint x="890" y="410" as="sourcePoint" />
            <mxPoint x="905" y="530" as="targetPoint" />
          </mxGeometry>
        </mxCell>
      </root>
    </mxGraphModel>
  </diagram>
</mxfile>
